<svg width="19" height="19" viewBox="0 0 19 19" fill="none" xmlns="http://www.w3.org/2000/svg">
<path d="M13.55 0.791504C11.9375 0.794132 10.427 1.6243 9.5 3.01698C8.57305 1.6243 7.0625 0.794132 5.45 0.791504C2.81299 0.791504 0.5 3.38128 0.5 6.33317C0.5 9.21008 2.03896 12.1731 4.95078 14.9022C6.2999 16.1642 7.77983 17.2613 9.3623 18.1728C9.44873 18.2198 9.55127 18.2198 9.6377 18.1728C11.2196 17.2613 12.6991 16.1641 14.0478 14.9022C16.961 12.1731 18.5 9.21008 18.5 6.33317C18.5 3.38128 16.187 0.791504 13.55 0.791504ZM9.5 17.5314C8.39814 16.8896 1.1 12.4055 1.1 6.33317C1.1 3.71851 3.13247 1.42484 5.45 1.42484C7.02002 1.42778 8.46729 2.3218 9.23867 3.76536C9.29639 3.85844 9.39468 3.91441 9.5 3.91441C9.60532 3.91441 9.70361 3.85844 9.76133 3.76536C10.5327 2.3218 11.98 1.42778 13.55 1.42484C15.8675 1.42484 17.9 3.71851 17.9 6.33317C17.9 12.4055 10.6019 16.8896 9.5 17.5314Z" fill="white"/>
</svg>
