<svg width="79" height="24" viewBox="0 0 79 24" fill="none" xmlns="http://www.w3.org/2000/svg">
<path d="M9.44 6.808C10.3573 6.808 11.2533 6.92533 12.128 7.16C13.0027 7.39467 13.8027 7.74667 14.528 8.216C15.2533 8.68533 15.8827 9.272 16.416 9.976C16.9493 10.68 17.3227 11.5013 17.536 12.44L14.656 12.888C13.8667 10.6267 12.128 9.47467 9.44 9.432C8.672 9.432 7.94667 9.54933 7.264 9.784C6.58133 10.0187 5.984 10.3813 5.472 10.872C4.98133 11.3413 4.58667 11.928 4.288 12.632C3.98933 13.3147 3.84 14.104 3.84 15C3.84 15.896 3.97867 16.696 4.256 17.4C4.55467 18.104 4.94933 18.6907 5.44 19.16C5.952 19.6293 6.54933 19.9813 7.232 20.216C7.91467 20.4507 8.65067 20.5573 9.44 20.536C10.7627 20.5147 11.8507 20.2373 12.704 19.704C13.5573 19.1707 14.1973 18.328 14.624 17.176L17.536 17.592C17.3227 18.5307 16.9493 19.352 16.416 20.056C15.8827 20.76 15.2533 21.3467 14.528 21.816C13.8027 22.264 13.0027 22.6053 12.128 22.84C11.2533 23.0747 10.3573 23.192 9.44 23.192C8.26667 23.192 7.14667 23.032 6.08 22.712C5.03467 22.3707 4.10667 21.8587 3.296 21.176C2.50667 20.4933 1.87733 19.64 1.408 18.616C0.938667 17.592 0.704 16.3867 0.704 15C0.704 13.6133 0.938667 12.408 1.408 11.384C1.87733 10.36 2.50667 9.50667 3.296 8.824C4.10667 8.14133 5.03467 7.64 6.08 7.32C7.14667 6.97867 8.26667 6.808 9.44 6.808ZM26.8335 23.192C25.6602 23.192 24.5295 23.032 23.4415 22.712C22.3748 22.3707 21.4362 21.8587 20.6255 21.176C19.8362 20.4933 19.1962 19.64 18.7055 18.616C18.2362 17.592 18.0015 16.3867 18.0015 15C18.0015 13.6133 18.2362 12.408 18.7055 11.384C19.1962 10.36 19.8362 9.50667 20.6255 8.824C21.4362 8.14133 22.3748 7.64 23.4415 7.32C24.5295 6.97867 25.6602 6.808 26.8335 6.808C28.0282 6.808 29.1588 6.97867 30.2255 7.32C31.2922 7.66133 32.2308 8.17333 33.0415 8.856C33.8522 9.51733 34.4922 10.36 34.9615 11.384C35.4522 12.408 35.6975 13.6133 35.6975 15C35.6975 16.3867 35.4522 17.592 34.9615 18.616C34.4922 19.64 33.8522 20.4933 33.0415 21.176C32.2308 21.8587 31.2922 22.3707 30.2255 22.712C29.1588 23.032 28.0282 23.192 26.8335 23.192ZM26.8335 9.464C26.1082 9.464 25.3935 9.58133 24.6895 9.816C24.0068 10.0507 23.3988 10.4027 22.8655 10.872C22.3535 11.3413 21.9375 11.928 21.6175 12.632C21.2975 13.3147 21.1375 14.104 21.1375 15C21.1375 15.9387 21.2868 16.76 21.5855 17.464C21.8842 18.1467 22.2895 18.712 22.8015 19.16C23.3135 19.608 23.9108 19.9493 24.5935 20.184C25.2975 20.3973 26.0442 20.504 26.8335 20.504C27.6015 20.504 28.3268 20.3973 29.0095 20.184C29.7135 19.9493 30.3215 19.608 30.8335 19.16C31.3668 18.6907 31.7828 18.1147 32.0815 17.432C32.4015 16.728 32.5615 15.9173 32.5615 15C32.5615 14.104 32.4015 13.3147 32.0815 12.632C31.7828 11.928 31.3668 11.352 30.8335 10.904C30.3002 10.4347 29.6922 10.0827 29.0095 9.848C28.3268 9.592 27.6015 9.464 26.8335 9.464ZM36.7113 7H39.8473V10.296C39.8473 10.616 39.8153 10.9787 39.7513 11.384C39.7086 11.768 39.6553 12.12 39.5913 12.44L39.6553 12.472C39.7193 12.152 39.7939 11.8 39.8793 11.416C39.9859 11.032 40.1246 10.6907 40.2953 10.392C40.9566 9.112 41.8099 8.184 42.8553 7.608C43.9006 7.032 44.9673 6.744 46.0553 6.744C47.0579 6.744 47.9006 6.968 48.5833 7.416C49.2873 7.864 49.8419 8.46133 50.2473 9.208C50.6739 9.95467 50.9726 10.8187 51.1433 11.8C51.3353 12.76 51.4313 13.7733 51.4313 14.84V23H48.2953V14.84C48.2953 13.304 48.0179 12.0987 47.4633 11.224C46.9086 10.328 46.0873 9.88 44.9993 9.88C44.5939 9.88 44.0926 9.976 43.4953 10.168C42.9193 10.3387 42.3539 10.6907 41.7993 11.224C41.2659 11.736 40.8073 12.4613 40.4233 13.4C40.0393 14.3173 39.8473 15.5227 39.8473 17.016V23H36.7113V7ZM52.1188 9.816V6.872H52.7268C53.0894 6.872 53.4628 6.72267 53.8468 6.424C54.2521 6.12533 54.6148 5.74133 54.9348 5.272C55.2548 4.80267 55.5214 4.28 55.7348 3.704C55.9481 3.128 56.0548 2.56267 56.0548 2.008L59.2228 1.976C59.1801 2.872 58.9668 3.72533 58.5828 4.536C58.1988 5.32533 57.6334 5.96533 56.8868 6.456C56.6094 6.62667 56.2681 6.75467 55.8628 6.84C55.4788 6.904 55.1268 6.968 54.8068 7.032V7.096C55.1268 7.032 55.4788 6.97867 55.8628 6.936C56.2681 6.89333 56.6308 6.872 56.9508 6.872H62.6148V9.816H58.5508V18.328C58.5508 19.032 58.7214 19.5013 59.0628 19.736C59.4041 19.9493 59.8201 20.056 60.3108 20.056H63.3828V23H60.4708C59.4254 23 58.5721 22.904 57.9108 22.712C57.2494 22.4987 56.7374 22.1787 56.3748 21.752C56.0121 21.3253 55.7561 20.7813 55.6068 20.12C55.4788 19.4373 55.4148 18.6373 55.4148 17.72V9.816H52.1188ZM63.7437 11.288C63.7437 9.83733 64.0851 8.76 64.7677 8.056C65.4504 7.352 66.5277 7 67.9997 7H74.4317V9.944L69.0237 9.976C68.5757 9.976 68.2131 9.99733 67.9357 10.04C67.6584 10.0827 67.4344 10.1893 67.2637 10.36C67.1144 10.5093 67.0077 10.744 66.9437 11.064C66.9011 11.384 66.8797 11.8213 66.8797 12.376V23H63.7437V11.288ZM78.7108 3.32V0.599998H75.4788V3.32H78.7108ZM75.5428 7H78.6468V23H75.5428V7Z" fill="white"/>
</svg>
