<svg width="18" height="18" viewBox="0 0 18 18" fill="none" xmlns="http://www.w3.org/2000/svg">
<g clip-path="url(#clip0_523_6)">
<path d="M17.4677 5.3055C17.1829 4.98398 16.774 4.79993 16.3445 4.8H14.3999V3.9C14.3974 1.74713 12.6528 0.002475 10.4999 0H7.49991C5.34704 0.002475 3.60239 1.74713 3.59991 3.9V4.8H1.65531C0.826898 4.79996 0.155311 5.47155 0.155273 6.29996C0.155273 6.36015 0.158873 6.42026 0.166111 6.48L1.24611 15.6261C1.41205 16.98 2.56079 17.998 3.92481 18H14.075C15.4397 17.9986 16.5893 16.9801 16.7552 15.6255L17.8337 6.4815C17.8855 6.0552 17.7523 5.62714 17.4677 5.3055ZM4.19991 3.9C4.20205 2.07836 5.67827 0.602138 7.49991 0.6H10.4999C12.3215 0.602138 13.7978 2.07836 13.7999 3.9V4.8H4.19991V3.9V3.9ZM14.3999 7.8V8.4H13.7999V7.8H14.3999ZM4.19991 7.8V8.4H3.59991V7.8H4.19991ZM17.2379 6.4101L16.1594 15.5541C16.0301 16.6073 15.1361 17.399 14.075 17.4H3.92481C2.86412 17.3992 1.97031 16.608 1.84071 15.5553L0.761911 6.4089C0.701761 5.91551 1.05299 5.46675 1.54641 5.4066C1.58256 5.40221 1.61894 5.4 1.65531 5.4H3.59991V7.2H3.29991C3.13424 7.2 2.99991 7.33433 2.99991 7.5V8.7C2.99991 8.86568 3.13424 9 3.29991 9H4.49991C4.66559 9 4.79991 8.86568 4.79991 8.7V7.5C4.79991 7.33433 4.66559 7.2 4.49991 7.2H4.19991V5.4H13.7999V7.2H13.4999C13.3342 7.2 13.1999 7.33433 13.1999 7.5V8.7C13.1999 8.86568 13.3342 9 13.4999 9H14.6999C14.8656 9 14.9999 8.86568 14.9999 8.7V7.5C14.9999 7.33433 14.8656 7.2 14.6999 7.2H14.3999V5.4H16.3445C16.8416 5.39993 17.2446 5.80279 17.2447 6.29985C17.2447 6.33671 17.2424 6.37354 17.2379 6.4101Z" fill="white"/>
</g>
<defs>
<clipPath id="clip0_523_6">
<rect width="18" height="18" fill="white"/>
</clipPath>
</defs>
</svg>
