<svg width="115" height="70" viewBox="0 0 115 70" fill="none" xmlns="http://www.w3.org/2000/svg">
<path d="M0 48.0003L0.412101 53.759L5.1933 50.5228L0 48.0003ZM58.5 62.5003L58.7443 62.9365L58.5 62.5003ZM2.12393 52.0287C6.59462 57.9026 13.915 64.4515 23.5465 67.621C33.1969 70.7968 45.1233 70.5642 58.7443 62.9365L58.2557 62.064C44.8693 69.5604 33.2328 69.7559 23.8591 66.6712C14.4663 63.5801 7.30126 57.1798 2.91966 51.4231L2.12393 52.0287ZM58.7443 62.9365C68.1808 57.6521 73.8891 51.744 76.8751 45.8915C79.8638 40.0336 80.1086 34.2617 78.6677 29.2983C77.2292 24.3435 74.1133 20.2023 70.3892 17.5834C66.6697 14.9678 62.2933 13.8402 58.3563 15.0213L58.6437 15.9792C62.2067 14.9103 66.2678 15.9077 69.8139 18.4014C73.3555 20.8919 76.3333 24.8445 77.7073 29.5772C79.0789 34.3013 78.8549 39.8106 75.9843 45.4371C73.1109 51.069 67.5692 56.8484 58.2557 62.064L58.7443 62.9365ZM58.3563 15.0213C50.5327 17.3684 47.7315 25.0545 48.9442 32.3944C50.1574 39.7377 55.4048 46.9458 63.9106 48.4922L64.0894 47.5083C56.0952 46.0549 51.0926 39.2631 49.9308 32.2313C48.7685 25.1961 51.4673 18.1321 58.6437 15.9792L58.3563 15.0213ZM63.9106 48.4922C72.2003 49.9993 84.4703 50.6471 94.937 44.6208C105.444 38.5715 113.995 25.8817 115 1.02019L114 0.979814C113.005 25.6183 104.556 37.9285 94.438 43.7542C84.2797 49.603 72.2997 49.001 64.0894 47.5083L63.9106 48.4922Z" fill="white"/>
</svg>
