<svg width="18" height="18" viewBox="0 0 18 18" fill="none" xmlns="http://www.w3.org/2000/svg">
<mask id="path-1-inside-1_523_12" fill="white">
<path d="M18 9C18 4.03756 13.9624 0 9 0C4.03756 0 0 4.03756 0 9C0 11.6211 1.12713 13.9837 2.92124 15.6299L2.91273 15.6374L3.20465 15.8835C3.22364 15.8996 3.24425 15.9127 3.26324 15.9284C3.41836 16.057 3.57905 16.1791 3.74269 16.2972C3.79571 16.3355 3.84873 16.3738 3.90273 16.4111C4.07749 16.5315 4.25684 16.6457 4.44011 16.7541C4.48004 16.7776 4.52029 16.8005 4.56054 16.8235C4.76116 16.9377 4.96604 17.0453 5.17582 17.1442C5.1912 17.1514 5.20691 17.1579 5.22229 17.1651C5.90596 17.4829 6.63578 17.7163 7.39898 17.854C7.41894 17.8576 7.43891 17.8612 7.4592 17.8648C7.69614 17.9057 7.93571 17.9385 8.17822 17.9604C8.20767 17.963 8.23713 17.9647 8.26691 17.9673C8.50844 17.9872 8.75258 18 9 18C9.24513 18 9.48698 17.9872 9.7272 17.9679C9.75764 17.9653 9.78807 17.9637 9.81851 17.9611C10.0591 17.9391 10.2967 17.9074 10.5313 17.8671C10.5516 17.8635 10.5722 17.8599 10.5925 17.856C11.3443 17.7212 12.0636 17.4931 12.7384 17.1835C12.7633 17.172 12.7885 17.1612 12.8134 17.1494C13.0153 17.0545 13.2127 16.9521 13.4061 16.8431C13.4542 16.8159 13.502 16.7884 13.5497 16.7603C13.7258 16.6565 13.8989 16.5482 14.0672 16.433C14.1277 16.3918 14.1869 16.3483 14.2468 16.3051C14.3905 16.2016 14.5316 16.0949 14.6687 15.9833C14.6991 15.9588 14.7319 15.9375 14.7616 15.9123L15.0611 15.6623L15.0523 15.6548C16.8621 14.0079 18 11.6345 18 9ZM0.654545 9C0.654545 4.39822 4.39822 0.654545 9 0.654545C13.6018 0.654545 17.3455 4.39822 17.3455 9C17.3455 11.4797 16.2573 13.7091 14.5345 15.2388C14.4383 15.1724 14.3414 15.1128 14.2423 15.0631L11.4712 13.6777C11.2225 13.5533 11.068 13.3033 11.068 13.0255V12.0577C11.1322 11.9785 11.1999 11.8888 11.27 11.7903C11.6287 11.2837 11.9163 10.7201 12.1261 10.1137C12.5408 9.91669 12.8085 9.50367 12.8085 9.03731V7.87713C12.8085 7.59338 12.7044 7.31814 12.5182 7.10182V5.57444C12.5352 5.40458 12.5954 4.446 11.9019 3.65531C11.2988 2.96673 10.3225 2.61818 9 2.61818C7.67749 2.61818 6.70124 2.96673 6.09807 3.65498C5.40458 4.44567 5.4648 5.40425 5.48182 5.57411V7.10149C5.29593 7.31782 5.19153 7.59305 5.19153 7.8768V9.03698C5.19153 9.39731 5.3532 9.73342 5.63007 9.96022C5.89516 10.9987 6.44073 11.7848 6.64233 12.0512V12.9983C6.64233 13.2653 6.49669 13.5108 6.26204 13.6391L3.67429 15.0506C3.59182 15.0955 3.51 15.1478 3.42818 15.2064C1.72669 13.6774 0.654545 11.4617 0.654545 9ZM13.8957 15.7523C13.7811 15.8354 13.6646 15.9159 13.5465 15.9928C13.4921 16.0282 13.4381 16.0635 13.3828 16.0979C13.2284 16.1935 13.0713 16.2844 12.9109 16.3695C12.8756 16.3882 12.8399 16.4059 12.8042 16.4242C12.4357 16.613 12.0544 16.7753 11.6627 16.9072C11.6489 16.9118 11.6352 16.9167 11.6211 16.9213C11.4159 16.9894 11.2081 17.0499 10.998 17.102C10.9973 17.102 10.9967 17.1023 10.996 17.1023C10.784 17.1547 10.5693 17.1982 10.3533 17.2339C10.3474 17.2348 10.3415 17.2361 10.3356 17.2371C10.1324 17.2702 9.92749 17.2941 9.72196 17.3121C9.68563 17.3153 9.64931 17.3176 9.61265 17.3203C9.40942 17.3356 9.2052 17.3455 9 17.3455C8.79251 17.3455 8.58567 17.3353 8.37982 17.3199C8.34414 17.3173 8.30847 17.315 8.27313 17.3117C8.06563 17.2934 7.85913 17.2689 7.65458 17.2355C7.64542 17.2339 7.63625 17.2322 7.62709 17.2306C7.19444 17.1583 6.76865 17.0519 6.354 16.9128C6.34124 16.9085 6.32815 16.904 6.31538 16.8997C6.10953 16.8297 5.90596 16.7521 5.706 16.6664C5.70469 16.6657 5.70305 16.6651 5.70175 16.6644C5.51258 16.5829 5.32702 16.4926 5.14374 16.3973C5.11985 16.3849 5.09564 16.3731 5.07207 16.3604C4.90484 16.271 4.7412 16.1745 4.57985 16.0737C4.53207 16.0436 4.48462 16.0131 4.43749 15.9824C4.28891 15.8852 4.14229 15.784 3.9996 15.677C3.98487 15.6659 3.9708 15.6541 3.95607 15.643C3.96655 15.6371 3.97702 15.6312 3.98749 15.6253L6.57524 14.2138C7.02033 13.9709 7.29687 13.5052 7.29687 12.9983L7.29654 11.8195L7.22127 11.7285C7.21407 11.7203 6.50651 10.8596 6.23913 9.69414L6.20934 9.56454L6.09774 9.49222C5.94033 9.39044 5.84607 9.22025 5.84607 9.03665V7.87647C5.84607 7.72429 5.91054 7.58258 6.02836 7.47622L6.13636 7.37869V5.55578L6.13342 5.51291C6.13244 5.50505 6.03589 4.71796 6.59029 4.086C7.06353 3.54665 7.87451 3.27273 9 3.27273C10.1212 3.27273 10.9296 3.54436 11.4041 4.07978C11.9579 4.7052 11.8672 5.50702 11.8666 5.51356L11.8636 7.37934L11.9716 7.47687C12.0891 7.58291 12.1539 7.72494 12.1539 7.87713V9.03731C12.1539 9.27065 11.9952 9.4824 11.7674 9.55276L11.6048 9.60283L11.5524 9.76484C11.3593 10.3647 11.0844 10.9188 10.7355 11.4117C10.6498 11.5328 10.5663 11.6401 10.4947 11.7223L10.4135 11.8149V13.0255C10.4135 13.553 10.7067 14.0276 11.1787 14.2632L13.9497 15.6485C13.9673 15.6574 13.9847 15.6665 14.002 15.6757C13.967 15.7022 13.931 15.7268 13.8957 15.7523Z"/>
</mask>
<path d="M18 9C18 4.03756 13.9624 0 9 0C4.03756 0 0 4.03756 0 9C0 11.6211 1.12713 13.9837 2.92124 15.6299L2.91273 15.6374L3.20465 15.8835C3.22364 15.8996 3.24425 15.9127 3.26324 15.9284C3.41836 16.057 3.57905 16.1791 3.74269 16.2972C3.79571 16.3355 3.84873 16.3738 3.90273 16.4111C4.07749 16.5315 4.25684 16.6457 4.44011 16.7541C4.48004 16.7776 4.52029 16.8005 4.56054 16.8235C4.76116 16.9377 4.96604 17.0453 5.17582 17.1442C5.1912 17.1514 5.20691 17.1579 5.22229 17.1651C5.90596 17.4829 6.63578 17.7163 7.39898 17.854C7.41894 17.8576 7.43891 17.8612 7.4592 17.8648C7.69614 17.9057 7.93571 17.9385 8.17822 17.9604C8.20767 17.963 8.23713 17.9647 8.26691 17.9673C8.50844 17.9872 8.75258 18 9 18C9.24513 18 9.48698 17.9872 9.7272 17.9679C9.75764 17.9653 9.78807 17.9637 9.81851 17.9611C10.0591 17.9391 10.2967 17.9074 10.5313 17.8671C10.5516 17.8635 10.5722 17.8599 10.5925 17.856C11.3443 17.7212 12.0636 17.4931 12.7384 17.1835C12.7633 17.172 12.7885 17.1612 12.8134 17.1494C13.0153 17.0545 13.2127 16.9521 13.4061 16.8431C13.4542 16.8159 13.502 16.7884 13.5497 16.7603C13.7258 16.6565 13.8989 16.5482 14.0672 16.433C14.1277 16.3918 14.1869 16.3483 14.2468 16.3051C14.3905 16.2016 14.5316 16.0949 14.6687 15.9833C14.6991 15.9588 14.7319 15.9375 14.7616 15.9123L15.0611 15.6623L15.0523 15.6548C16.8621 14.0079 18 11.6345 18 9ZM0.654545 9C0.654545 4.39822 4.39822 0.654545 9 0.654545C13.6018 0.654545 17.3455 4.39822 17.3455 9C17.3455 11.4797 16.2573 13.7091 14.5345 15.2388C14.4383 15.1724 14.3414 15.1128 14.2423 15.0631L11.4712 13.6777C11.2225 13.5533 11.068 13.3033 11.068 13.0255V12.0577C11.1322 11.9785 11.1999 11.8888 11.27 11.7903C11.6287 11.2837 11.9163 10.7201 12.1261 10.1137C12.5408 9.91669 12.8085 9.50367 12.8085 9.03731V7.87713C12.8085 7.59338 12.7044 7.31814 12.5182 7.10182V5.57444C12.5352 5.40458 12.5954 4.446 11.9019 3.65531C11.2988 2.96673 10.3225 2.61818 9 2.61818C7.67749 2.61818 6.70124 2.96673 6.09807 3.65498C5.40458 4.44567 5.4648 5.40425 5.48182 5.57411V7.10149C5.29593 7.31782 5.19153 7.59305 5.19153 7.8768V9.03698C5.19153 9.39731 5.3532 9.73342 5.63007 9.96022C5.89516 10.9987 6.44073 11.7848 6.64233 12.0512V12.9983C6.64233 13.2653 6.49669 13.5108 6.26204 13.6391L3.67429 15.0506C3.59182 15.0955 3.51 15.1478 3.42818 15.2064C1.72669 13.6774 0.654545 11.4617 0.654545 9ZM13.8957 15.7523C13.7811 15.8354 13.6646 15.9159 13.5465 15.9928C13.4921 16.0282 13.4381 16.0635 13.3828 16.0979C13.2284 16.1935 13.0713 16.2844 12.9109 16.3695C12.8756 16.3882 12.8399 16.4059 12.8042 16.4242C12.4357 16.613 12.0544 16.7753 11.6627 16.9072C11.6489 16.9118 11.6352 16.9167 11.6211 16.9213C11.4159 16.9894 11.2081 17.0499 10.998 17.102C10.9973 17.102 10.9967 17.1023 10.996 17.1023C10.784 17.1547 10.5693 17.1982 10.3533 17.2339C10.3474 17.2348 10.3415 17.2361 10.3356 17.2371C10.1324 17.2702 9.92749 17.2941 9.72196 17.3121C9.68563 17.3153 9.64931 17.3176 9.61265 17.3203C9.40942 17.3356 9.2052 17.3455 9 17.3455C8.79251 17.3455 8.58567 17.3353 8.37982 17.3199C8.34414 17.3173 8.30847 17.315 8.27313 17.3117C8.06563 17.2934 7.85913 17.2689 7.65458 17.2355C7.64542 17.2339 7.63625 17.2322 7.62709 17.2306C7.19444 17.1583 6.76865 17.0519 6.354 16.9128C6.34124 16.9085 6.32815 16.904 6.31538 16.8997C6.10953 16.8297 5.90596 16.7521 5.706 16.6664C5.70469 16.6657 5.70305 16.6651 5.70175 16.6644C5.51258 16.5829 5.32702 16.4926 5.14374 16.3973C5.11985 16.3849 5.09564 16.3731 5.07207 16.3604C4.90484 16.271 4.7412 16.1745 4.57985 16.0737C4.53207 16.0436 4.48462 16.0131 4.43749 15.9824C4.28891 15.8852 4.14229 15.784 3.9996 15.677C3.98487 15.6659 3.9708 15.6541 3.95607 15.643C3.96655 15.6371 3.97702 15.6312 3.98749 15.6253L6.57524 14.2138C7.02033 13.9709 7.29687 13.5052 7.29687 12.9983L7.29654 11.8195L7.22127 11.7285C7.21407 11.7203 6.50651 10.8596 6.23913 9.69414L6.20934 9.56454L6.09774 9.49222C5.94033 9.39044 5.84607 9.22025 5.84607 9.03665V7.87647C5.84607 7.72429 5.91054 7.58258 6.02836 7.47622L6.13636 7.37869V5.55578L6.13342 5.51291C6.13244 5.50505 6.03589 4.71796 6.59029 4.086C7.06353 3.54665 7.87451 3.27273 9 3.27273C10.1212 3.27273 10.9296 3.54436 11.4041 4.07978C11.9579 4.7052 11.8672 5.50702 11.8666 5.51356L11.8636 7.37934L11.9716 7.47687C12.0891 7.58291 12.1539 7.72494 12.1539 7.87713V9.03731C12.1539 9.27065 11.9952 9.4824 11.7674 9.55276L11.6048 9.60283L11.5524 9.76484C11.3593 10.3647 11.0844 10.9188 10.7355 11.4117C10.6498 11.5328 10.5663 11.6401 10.4947 11.7223L10.4135 11.8149V13.0255C10.4135 13.553 10.7067 14.0276 11.1787 14.2632L13.9497 15.6485C13.9673 15.6574 13.9847 15.6665 14.002 15.6757C13.967 15.7022 13.931 15.7268 13.8957 15.7523Z" fill="white" stroke="black" stroke-width="0.1" mask="url(#path-1-inside-1_523_12)"/>
</svg>
